<svg xmlns="http://www.w3.org/2000/svg" width="250" height="250" fill="#fff"><path d="M187.5 82v93.8h-125V82H96l7.8-7.8h42.4L154 82h33.5zm-7.8 7.8h-29L143 82h-36l-7.7 7.8h-29V168h109.4V89.8zm-54.7 8q6.5 0 12 2.3 6 2.7 10 7 4.4 4 6.8 10 2.5 5.6 2.5 12t-2.5 12.3q-2.4 5.8-6.7 10-4 4.3-10 6.7-5.3 2.4-12 2.4t-12-2.5q-5.7-2.6-10-6.8-4.2-4.2-6.6-10-2.5-5.6-2.5-12 0-6.6 2.4-12.2 2.4-5.7 6.6-10 4.2-4.2 10-6.6 5.6-2.3 12-2.3zm0 54.5q4.8 0 9-1.8 4.4-2 7.5-5 3.2-3.2 5-7.5 2-4.3 2-9 0-5-2-9.2-1.8-4.3-5-7.4-3-3.2-7.4-5-4-2-9-2t-9 2q-4.2 1.8-7.3 5-3.2 3-5 7.4-2 4.3-2 9 0 5 2 9.2 1.8 4.3 5 7.4 3 3.2 7.4 5 4.3 2 9 2zM82 97.7q1.6 0 2.8 1 1 1.3 1 3 0 1.4-1 2.6-1.2 1.2-2.8 1.2-1.6 0-2.7-1.2-1.2-1.2-1.2-2.7 0-1.6 1.5-2.8 1-1 2.7-1z"/></svg>