<svg xmlns="http://www.w3.org/2000/svg" width="250" height="250" fill="#fff"><path d="M187.5 74.22v101.56h-125V74.22h125zm-117.2 7.8v7.82h109.4v-7.8H70.3zm109.4 85.95v-70.3H70.3v70.3h109.4zm-32.24-54.7l15.7 39.07h-5.57l-15.7-39.06h5.55zm-40.04 4.65q-3.23 0-5.92 1.04-2.62.97-4.52 2.93-1.83 1.87-2.86 4.74-1.04 2.8-1.04 6.4 0 3.36.9 6.1 1 2.76 2.76 4.7 1.83 1.9 4.46 2.94 2.62 1.03 5.98 1.03 2.13 0 4.2-.42 2.15-.43 3.55-1.1l.98 3.8q-1.33.66-3.83 1.2-2.5.5-5.86.5-3.83 0-7.2-1.23-3.3-1.22-5.73-3.54-2.44-2.37-3.84-5.8-1.35-3.46-1.35-8 0-4.25 1.4-7.8 1.4-3.6 3.9-6.1 2.58-2.56 6.06-3.96 3.54-1.4 7.8-1.4 3.5 0 5.62.6 2.14.55 3.12 1.04l-1.16 3.85q-1.34-.68-3.23-1.1-1.84-.43-4.16-.43zM125 121.1h7.8v7.8H125v-7.8zm0 15.62h7.8v7.8H125v-7.8z"/></svg>