<svg xmlns="http://www.w3.org/2000/svg" width="250" height="250" fill="#fff"><path d="M187.5 62.66v3.37q0 4.8-.16 9.13-.1 4.35-.6 8.6-.5 4.17-1.47 8.4-.98 4.25-2.6 8.82 2.44 5.76 3.63 11.8 1.2 5.97 1.2 12.22 0 8.64-2.23 16.63-2.23 8-6.3 14.95-4.08 6.9-9.8 12.6-5.7 5.7-12.65 9.8-6.9 4.06-14.9 6.3-7.98 2.22-16.62 2.22t-16.63-2.23q-8-2.23-14.95-6.3-6.9-4.08-12.6-9.8-5.7-5.7-9.8-12.6-4.06-6.95-6.3-14.94-2.22-8-2.22-16.63 0-6.2 1.2-12.23t3.58-11.8q-1.85-5.1-2.82-9.72-.98-4.67-1.42-9.24-.43-4.5-.5-9.2-.04-4.7-.04-10l27.12 10.8q7.93-5.4 16.85-8.2 8.9-2.8 18.53-2.8 9.62 0 18.53 2.9 8.92 2.8 16.85 8.2l27.12-10.9zM179.67 125q0-6.2-1.35-12.17-1.36-5.98-4.03-11.58 2.7-6.4 4-13.2 1.3-6.85 1.3-13.8l-20 8.52q-7.5-6.1-16.3-9.24-8.8-3.2-18.5-3.2t-18.5 3.2q-8.8 3.15-16.3 9.24l-19.9-8.53q0 6.96 1.3 13.8 1.3 6.8 4.06 13.2-2.7 5.6-4.07 11.6-1.3 5.96-1.3 12.16 0 7.55 2 14.57 1.97 6.95 5.5 13.04 3.6 6.1 8.5 11.1 5 5 11.1 8.5 6.1 3.6 13.05 5.6 7.05 2 14.6 2t14.5-1.9q7.03-1.9 13.1-5.5 6.1-3.52 11.05-8.5 5-5 8.55-11.1 3.6-6.03 5.55-13 1.95-7 1.95-14.6zm-31.3 19.5q1.63 0 2.77 1.2 1.14 1.2 1.14 2.78 0 1.1-.54 2-1.85 3.54-4.84 6.37-2.93 2.77-6.52 4.73-3.53 1.95-7.5 3-3.97 1.02-7.88 1.02-3.9 0-7.88-1.03-3.97-1.04-7.55-3-3.6-1.95-6.58-4.72-3-2.83-4.8-6.36-.6-1-.6-2.1 0-1.6 1.1-2.8 1.1-1.2 2.7-1.2 1.3 0 1.9.5.6.5 1.4 1.4.7.9 1.4 1.9.6 1 1.4 1.9 1.5 1.8 3.5 3.2 2 1.4 4.2 2.4 2.3.9 4.7 1.4 2.45.5 4.84.5 2.3 0 4.66-.5 2.5-.57 4.78-1.5 2.3-1 4.3-2.4T142 150q.74-.95 1.4-1.9.64-1 1.4-1.9.8-.95 1.37-1.4.65-.5 1.95-.5zm11.8-39q1.57 0 2.7 1.18 1.2 1.15 1.2 2.72 0 1.96-1.57 3.1l-10.16 7.6v10.77q0 1.2-.5 2.28-.43 1.03-1.24 1.85-.82.82-1.9 1.3-1.04.44-2.23.44-1.2 0-2.3-.44-1.02-.48-1.83-1.3-.82-.82-1.3-1.85-.44-1.08-.44-2.28v-4.9q0-2.44.1-4.88.06-1 .33-1.8.33-.8 1.14-1.4l15.66-11.8q1.03-.8 2.33-.8zm-56.64 31.24q-1.2 0-2.28-.44-1.03-.48-1.85-1.3-.8-.82-1.3-1.85-.44-1.08-.44-2.28V120.1l-10.16-7.6q-1.58-1.14-1.58-3.1 0-1.63 1.15-2.77 1.14-1.14 2.77-1.14 1.3 0 2.33.7l15.66 11.8q1.46 1 1.46 3.1v9.7q0 1.2-.5 2.3-.5 1-1.3 1.8t-1.9 1.3q-1.1.4-2.3.4z"/></svg>