<svg xmlns="http://www.w3.org/2000/svg" width="250" height="250" fill="#fff"><path d="M107.43 141a43.44 43.44 0 0 1 16.08 2.75 30.92 30.92 0 0 1 11.6 7.84 33.5 33.5 0 0 1 7.07 12.3 51.38 51.38 0 0 1 2.4 16.16v7.8H70.32v-7.8a52 52 0 0 1 2.35-16.18 33.14 33.14 0 0 1 7-12.3 30.86 30.86 0 0 1 11.63-7.86 43.92 43.92 0 0 1 16.13-2.74zm0-7.8a20.9 20.9 0 0 1-8.92-1.9 21.5 21.5 0 0 1-7-5.12 22.9 22.9 0 0 1-4.5-7.5 26.15 26.15 0 0 1 0-18 22.9 22.9 0 0 1 4.5-7.5 21.54 21.54 0 0 1 7-5 22.1 22.1 0 0 1 17.9 0 21.55 21.55 0 0 1 7 5.1 22.93 22.93 0 0 1 4.5 7.5 26.15 26.15 0 0 1 0 17.94 22.9 22.9 0 0 1-4.5 7.5 21.53 21.53 0 0 1-7 5.1 20.9 20.9 0 0 1-9 1.83zm66.4-70.3a5.84 5.84 0 0 1 5.9 5.86V100a5.83 5.83 0 0 1-5.82 5.86h-17.63l-15.62 15.63v-15.65h-4.15a34.85 34.85 0 0 0-2-8.27 29.86 29.86 0 0 0-9.8-13.3 26.75 26.75 0 0 0-7.5-4.08V68.76a5.85 5.85 0 0 1 5.86-5.86z"/></svg>